<svg width="46" height="148" viewBox="0 0 46 148" fill="none" xmlns="http://www.w3.org/2000/svg">
<path d="M35.1229 4.20541C32.7265 6.97969 32.865 11.2672 33.0685 13.2024C31.9212 14.7997 30.8216 16.4263 29.7697 18.0821C30.357 16.2931 30.444 14.3736 30.0212 12.5335C29.4304 10.1869 27.7036 8.30365 26.097 7.05142C25.1435 6.29228 24.1035 5.65082 22.9994 5.14082C22.9994 5.14082 22.7233 5.48886 22.3283 6.08252C22.1315 6.38191 21.9079 6.74331 21.6698 7.1524C21.4318 7.56149 21.2208 8.05106 21.0051 8.56379C20.536 9.65601 20.1973 10.801 19.9961 11.9748C19.9048 12.5858 19.8705 13.2042 19.8936 13.8221C19.9289 14.4502 20.0408 15.0719 20.2266 15.6732C20.9881 18.0892 22.9433 19.7303 24.6701 20.8024C25.5175 21.3286 26.4075 21.7814 27.3305 22.1559C25.6048 25.1762 24.0315 28.258 22.6104 31.4013C22.6946 30.7028 22.7365 29.9997 22.7361 29.2957C22.7632 28.1175 22.5472 26.9454 22.1016 25.8536C21.1483 23.5932 19.1617 21.9769 17.3902 20.9607C16.3441 20.3515 15.2303 19.8698 14.0724 19.5256C13.4594 20.6999 12.9657 21.934 12.5987 23.2092C12.4333 23.7646 12.3036 24.3303 12.2105 24.9028C12.1256 25.513 12.0836 26.1287 12.085 26.7452C12.0625 27.9969 12.312 29.2396 12.8161 30.3861C13.3376 31.4642 14.1032 32.4045 15.0508 33.1309C15.9291 33.8122 16.8909 34.3762 17.9122 34.8088C18.8357 35.2063 19.7899 35.5263 20.765 35.7655C19.488 38.9871 18.3738 42.2619 17.4223 45.59C17.5027 43.696 17.0405 41.8162 16.0909 40.175C14.8646 38.0919 12.6839 36.7852 10.7874 36.0327C9.65807 35.5817 8.47988 35.2681 7.27793 35.0985C7.27793 35.0985 7.1099 35.5053 6.89751 36.1925C6.62688 37.0942 6.44397 38.0207 6.35137 38.9589C6.10571 41.1843 6.13337 43.9229 7.5894 46.0322C9.04542 48.1415 11.3235 49.1426 13.2858 49.6746C14.2449 49.9308 15.2227 50.1088 16.2095 50.2067C16.0799 50.7567 15.959 51.2988 15.8219 51.8617C15.1992 54.687 14.7081 57.5372 14.3105 60.4118C14.2037 59.7233 14.0417 59.0445 13.8263 58.3819C13.5202 57.2443 12.9822 56.1825 12.2468 55.2643C10.7019 53.3707 8.33766 52.3927 6.35086 51.911C5.17652 51.6274 3.97337 51.486 2.76702 51.4901C2.5118 52.7949 2.3872 54.1229 2.3951 55.454C2.39255 56.6558 2.56843 57.852 2.91692 59.003C3.24651 60.2144 3.83362 61.3402 4.63744 62.3021C6.26576 64.1624 8.7757 64.8327 10.8018 65.0353C11.7916 65.1597 12.7894 65.2021 13.7853 65.1622C13.4837 68.645 13.3584 72.1372 13.4094 75.6388C12.9485 73.7689 11.9616 72.0708 10.5674 70.7492C8.7853 69.1055 6.34385 68.488 4.30941 68.3151C3.10368 68.2113 1.89067 68.2493 0.694943 68.4285C0.694943 68.4285 0.656221 68.8719 0.64684 69.587C0.652827 70.5333 0.74402 71.4776 0.919294 72.4081C1.31511 74.6151 2.12491 77.2318 4.12401 78.8339C6.12311 80.4359 8.58138 80.7309 10.5924 80.6744C11.5871 80.6397 12.5772 80.5247 13.553 80.3305C13.7588 83.8016 14.1307 87.2574 14.6688 90.698C14.3641 90.0611 14.0176 89.4453 13.6316 88.8546C13.0101 87.8548 12.1914 86.9939 11.2266 86.3255C9.19888 84.9613 6.66501 84.7085 4.63635 84.841C3.43182 84.9133 2.2407 85.1294 1.08796 85.4848C1.21863 86.8077 1.48145 88.1146 1.87241 89.3855C2.03794 89.9452 2.23932 90.4936 2.47529 91.0273C2.74277 91.5761 3.04637 92.1063 3.38403 92.6145C4.04842 93.6731 4.93654 94.5714 5.98457 95.2448C8.09528 96.5538 10.6128 96.4821 12.6245 96.124C13.6086 95.9446 14.5764 95.6852 15.5184 95.3486C15.9448 97.4268 16.4305 99.4891 16.9752 101.536C17.3301 102.86 17.7219 104.18 18.1274 105.491C17.1473 103.868 15.7534 102.537 14.0915 101.64C11.9269 100.575 9.39767 100.705 7.43151 101.111C6.24945 101.36 5.10077 101.747 4.00864 102.264C4.00864 102.264 4.12237 102.688 4.30873 103.384C4.55926 104.291 4.8971 105.172 5.31743 106.013C5.82994 107.097 6.48425 108.107 7.26284 109.016C8.04404 109.975 9.03169 110.741 10.1502 111.257C12.4356 112.245 14.9512 111.802 16.8709 111.161C17.8215 110.839 18.7448 110.442 19.6322 109.972C20.8231 113.281 22.1728 116.521 23.6812 119.69C22.4673 118.191 20.8683 117.057 19.0601 116.412C16.7312 115.688 14.2658 116.156 12.3538 116.866C11.2159 117.274 10.1306 117.817 9.12052 118.483C9.12052 118.483 9.26973 118.898 9.56992 119.552C9.98215 120.4 10.4503 121.22 10.9713 122.005C11.6395 123 12.4299 123.906 13.3235 124.702C14.2579 125.53 15.362 126.141 16.5563 126.489C18.9802 127.122 21.3999 126.32 23.1922 125.407C24.0906 124.949 24.9491 124.417 25.7586 123.815C27.4107 126.922 29.2191 129.942 31.1766 132.865C30.615 132.374 30.0132 131.932 29.3776 131.543C28.3819 130.907 27.2697 130.48 26.1078 130.287C23.728 129.9 21.3396 130.737 19.5499 131.721C18.4886 132.299 17.4987 133 16.6007 133.811C16.6007 133.811 16.8144 134.203 17.204 134.805C17.7264 135.591 18.3089 136.335 18.9462 137.03C20.4419 138.679 22.6425 140.364 25.1133 140.645C27.584 140.926 29.8658 139.771 31.5233 138.598C32.3401 138.014 33.1088 137.365 33.822 136.656C36.4697 140.274 39.3493 143.713 42.4422 146.953C42.5408 147.058 42.6656 147.134 42.8033 147.173C42.941 147.212 43.0866 147.214 43.2245 147.176C43.3589 147.141 43.4815 147.07 43.5802 146.971C43.6788 146.873 43.7501 146.75 43.787 146.615C43.8238 146.48 43.8249 146.337 43.7901 146.201C43.7554 146.065 43.686 145.941 43.5889 145.84C40.5468 142.653 37.7135 139.271 35.107 135.714C35.98 135.233 36.8132 134.681 37.5985 134.066C39.2073 132.812 40.9477 130.976 41.6588 128.784C42.2291 126.812 42.1427 124.702 41.4126 122.777C41.1759 122.089 40.8926 121.418 40.5647 120.768C40.3161 120.287 40.1285 119.992 40.1285 119.992C39.0069 120.431 37.9258 120.968 36.8975 121.597C35.168 122.664 33.2035 124.231 32.361 126.48C31.9776 127.574 31.8485 128.743 31.9838 129.897C32.0689 130.573 32.2132 131.241 32.4151 131.892C30.5227 129.051 28.7722 126.118 27.1701 123.102C28.098 122.753 28.9962 122.329 29.856 121.834C31.6195 120.814 33.6291 119.272 34.6457 117.207C35.1175 116.234 35.3877 115.173 35.4399 114.089C35.5007 113.134 35.4371 112.175 35.2509 111.235C35.1238 110.518 34.9349 109.813 34.6863 109.128C34.5189 108.625 34.375 108.291 34.375 108.291C33.2012 108.558 32.0542 108.932 30.9476 109.406C29.0906 110.2 26.884 111.493 25.7487 113.54C24.9149 115.185 24.6542 117.068 25.0081 118.885C23.5398 115.798 22.2258 112.64 21.071 109.422C22.0454 109.218 23.0009 108.932 23.9277 108.569C25.8278 107.835 28.0099 106.592 29.3365 104.691C29.9626 103.808 30.4109 102.809 30.6562 101.751C30.8364 100.809 30.9092 99.8502 30.8733 98.8914C30.8199 98.0233 30.7409 97.2825 30.6487 96.7153C30.6013 96.4202 30.5392 96.1277 30.4627 95.8388C29.2625 95.9344 28.0735 96.1375 26.9098 96.4455C24.9485 96.971 22.6118 97.9205 21.1489 99.8198C20.0768 101.341 19.5521 103.186 19.6613 105.053C19.2626 103.767 18.879 102.478 18.531 101.179C17.9883 99.1539 17.5096 97.1171 17.0947 95.0687C18.093 95.005 19.0842 94.8603 20.0587 94.6362C22.0241 94.1864 24.3957 93.2659 25.9912 91.5777C26.7314 90.785 27.2971 89.8434 27.6516 88.8142C27.8155 88.3511 27.9423 87.8754 28.0309 87.3916C28.1227 86.9231 28.2208 86.4583 28.2687 86.0289C28.4 85.0125 28.3998 83.9826 28.268 82.9651C27.0634 82.8841 25.8545 82.9109 24.6555 83.0451C22.6376 83.2789 20.1963 83.8782 18.5175 85.5394C17.7096 86.3601 17.096 87.3544 16.7223 88.4486C16.4955 89.1323 16.3499 89.841 16.2885 90.5599C15.7398 87.1462 15.3623 83.7075 15.1574 80.2569C16.1597 80.3463 17.1673 80.3496 18.1693 80.2666C20.1962 80.1072 22.6637 79.5447 24.4461 78.1079C25.9876 76.7685 27.0615 74.9654 27.5106 72.9621C27.6682 72.2561 27.7869 71.5418 27.8662 70.8223C27.9068 70.5283 27.9327 70.2323 27.9436 69.9355C26.7685 69.6677 25.5726 69.5058 24.37 69.4515C22.3464 69.3799 19.8078 69.6161 17.8833 71.0088C16.4587 72.1802 15.4487 73.7847 15.0027 75.5846C14.9557 72.1499 15.0798 68.7159 15.3746 65.2954C16.3485 65.5256 17.339 65.6763 18.3363 65.746C20.3777 65.8842 22.8407 65.6901 24.8794 64.5409C25.8172 64.0004 26.6311 63.2669 27.2684 62.388C27.8128 61.6098 28.2758 60.7768 28.6501 59.902C29.0691 58.9693 29.366 57.9851 29.5332 56.9741C28.402 56.5467 27.2353 56.2227 26.0473 56.0062C24.0473 55.6377 21.5348 55.5052 19.4442 56.6025C18.4339 57.1482 17.5593 57.9165 16.8851 58.8504C16.4793 59.4537 16.1348 60.0969 15.8569 60.7703C16.2315 57.8909 16.7286 55.0226 17.3587 52.1844C17.4782 51.6372 17.6093 51.0923 17.7454 50.5461C18.6825 50.9186 19.6491 51.2097 20.6348 51.4162C22.6258 51.8529 25.1469 52.0379 27.2739 51.1775C29.1273 50.3599 30.6737 48.9709 31.6915 47.2094C32.0468 46.5718 32.3698 45.9163 32.659 45.2455C32.7807 44.9776 32.8886 44.7036 32.9822 44.4244C31.9274 43.8345 30.8213 43.3437 29.6779 42.9584C27.7527 42.3012 25.265 41.7949 23.0024 42.5546C21.1812 43.218 19.8413 44.6842 18.89 46.1614C19.837 42.8437 20.9607 39.5772 22.2395 36.3625C23.1085 36.863 24.0156 37.2926 24.9521 37.6472C25.9794 38.0429 27.0458 38.325 28.1326 38.4887C29.2804 38.6655 30.4494 38.6344 31.5845 38.3969C32.6334 38.1475 33.6182 37.6801 34.476 37.0247C34.8667 36.73 35.2336 36.4044 35.5731 36.051C35.9118 35.7136 36.2404 35.3789 36.5206 35.0462C37.1836 34.2704 37.7439 33.411 38.1875 32.4893C37.2253 31.7587 36.2005 31.1161 35.1254 30.5692C33.3072 29.6423 30.9377 28.7863 28.626 29.2413C27.5024 29.4769 26.4468 29.9639 25.5369 30.6665C24.9688 31.1073 24.4537 31.6132 24.0016 32.1741C25.4197 29.0535 26.9898 25.9525 28.7032 22.9611C29.4973 23.5909 30.342 24.153 31.2285 24.6413C33.0097 25.633 35.3865 26.5364 37.6543 26.3233C38.2018 26.2706 38.7414 26.1554 39.2626 25.9801C39.7701 25.828 40.2622 25.6282 40.7323 25.3835C41.5732 24.9409 42.3487 24.3827 43.0364 23.7247C43.3355 23.4497 43.6203 23.1593 43.8897 22.8547C44.1509 22.5929 44.3679 22.3484 44.5433 22.1315C44.7361 21.9102 44.917 21.6788 45.0854 21.4381C44.2394 20.5696 43.317 19.7801 42.3296 19.0797C40.6616 17.8823 38.4336 16.7033 36.0399 16.7911C34.0754 16.879 32.3874 17.9178 31.0642 19.0617C32.1122 17.4179 33.2034 15.8008 34.3381 14.2106C36.3017 14.1394 40.4658 13.6649 42.8267 10.9001C45.9626 7.23703 44.6774 0.899839 44.6774 0.899839C44.6774 0.899839 38.2929 0.527716 35.1229 4.20541Z" fill="url(#paint0_linear_1890_8260)"/>
<defs>
<linearGradient id="paint0_linear_1890_8260" x1="-0.568151" y1="85.1831" x2="62.7154" y2="68.2263" gradientUnits="userSpaceOnUse">
<stop stop-color="#65AB0E"/>
<stop offset="1" stop-color="#B3E042"/>
</linearGradient>
</defs>
</svg>
