<svg xmlns="http://www.w3.org/2000/svg" width="26" height="26" fill="#b1e441"><path d="M12.982 0c-5.254 0-9.53 4.275-9.53 9.53 0 2.414 1.52 5.824 4.52 10.136 2.193 3.152 4.35 5.592 4.44 5.694l.57.64.57-.64c.09-.102 2.247-2.542 4.44-5.694 3-4.312 4.52-7.722 4.52-10.136 0-5.254-4.275-9.53-9.53-9.53zm3.77 18.785c-1.482 2.132-2.98 3.967-3.77 4.903a69.03 69.03 0 0 1-3.76-4.891c-2.78-3.995-4.248-7.2-4.248-9.268a8.02 8.02 0 0 1 8.009-8.009 8.02 8.02 0 0 1 8.009 8.009c0 2.066-1.466 5.266-4.24 9.256z"/><path d="M12.982 3.52a5.63 5.63 0 0 0-5.624 5.624 5.63 5.63 0 0 0 5.624 5.624 5.63 5.63 0 0 0 5.624-5.624 5.63 5.63 0 0 0-5.624-5.624zm0 9.728a4.11 4.11 0 0 1-4.104-4.104 4.11 4.11 0 0 1 4.104-4.104 4.11 4.11 0 0 1 4.104 4.104 4.11 4.11 0 0 1-4.104 4.104z"/></svg>