<svg width="85" height="278" viewBox="0 0 85 278" fill="none" xmlns="http://www.w3.org/2000/svg">
<g clip-path="url(#clip0_2666_6249)">
<path d="M64.9981 136.453C64.9981 136.453 61.9948 132.086 57.8489 136.114C57.8489 136.114 55.8887 138.224 57.218 154.313L61.3818 158.971L62.6762 158.719C62.4896 159.116 62.9471 158.761 62.8428 155.524C62.769 152.532 61.9854 143.644 64.9981 136.453Z" fill="#65AB0E"/>
<path d="M77.5541 155.039C77.5541 155.039 79.4043 155.435 84.0555 152.989C84.0555 152.989 80.8589 152.724 78.6152 148.314C76.3715 143.903 72.3686 134.824 67.3557 133.549C67.3557 133.549 65.9703 133.092 64.3033 133.158C62.7343 133.221 59.2479 134.141 57.8727 136.089C57.8727 136.089 60.7334 132.682 65.7712 137.956C68.3925 140.762 75.6534 153.589 77.5541 155.039Z" fill="url(#paint0_linear_2666_6249)"/>
<path d="M44.057 142.049C44.057 142.049 41.0537 137.682 36.9078 141.71C36.9078 141.71 34.9476 143.82 36.2769 159.909L38.5599 163.926L41.7596 164.314C41.573 164.711 42.0305 164.356 41.9262 161.119C41.8285 158.153 41.0443 149.24 44.057 142.049Z" fill="#65AB0E"/>
<path d="M56.6132 160.635C56.6132 160.635 58.4634 161.031 63.1145 158.585C63.1145 158.585 59.9179 158.32 57.6743 153.909C55.4306 149.499 51.4277 140.42 46.4148 139.145C46.4148 139.145 45.03 138.713 43.363 138.778C41.794 138.841 38.3076 139.762 36.9324 141.71C36.9324 141.71 39.793 138.302 44.8309 143.576C47.4516 146.358 54.7125 159.185 56.6132 160.635Z" fill="url(#paint1_linear_2666_6249)"/>
<path d="M35.3795 166.312C35.3795 166.312 37.2297 166.708 41.8809 164.262C41.8809 164.262 38.6843 163.997 36.4406 159.586C34.1724 155.176 30.1695 146.097 25.1566 144.822L20.6448 146.946C21.5146 147.39 22.4898 148.127 23.5733 149.278C26.2179 152.035 33.4782 164.837 35.3795 166.312Z" fill="url(#paint2_linear_2666_6249)"/>
</g>
<g clip-path="url(#clip1_2666_6249)">
<path d="M15.3677 17.5021C15.3677 17.5021 22.2696 19.8243 21.0445 29.5142C19.8438 39.186 23.8933 40.792 23.8933 40.792L28.9363 41.2376C28.9363 41.2376 30.5573 43.558 32.1371 36.6793C33.717 29.8007 29.2408 12.3331 22.0653 14.0138C12.504 16.2628 15.3677 17.5021 15.3677 17.5021Z" fill="#65AB0E"/>
<path d="M24.5168 14.1936C24.5168 14.1936 19.9992 12.3678 13.7383 12.681C10.6717 12.8468 3.87221 19.45 5.8002 28.0738C5.8002 28.0738 5.55477 29.4728 8.89847 31.1508C12.2847 32.835 14.9661 33.9828 15.6913 33.1747C15.6913 33.1747 14.4048 30.946 14.8904 27.5823C15.1977 25.4534 15.8082 24.0854 17.4498 20.693C20.068 15.203 23.0575 13.6135 24.5168 14.1936Z" fill="url(#paint3_linear_2666_6249)"/>
<path d="M29.9397 41.5126C29.9397 41.5126 28.6232 43.1047 22.0381 40.5457C19.0161 39.3488 17.019 36.3221 17.401 33.0738C17.5426 31.9424 17.794 30.653 18.2343 29.1083C20.5583 20.9896 25.9511 15.2483 30.0999 15.5647C38.5496 16.1978 41.9297 17.9246 43.3091 19.0583C43.3091 19.0583 37.8868 15.9717 32.2972 23.0756C25.9518 31.2005 25.9913 41.4642 29.9397 41.5126Z" fill="url(#paint4_linear_2666_6249)"/>
</g>
<path d="M42.6579 275.38C42.6579 275.38 47.1589 273.928 50.1035 267.123C53.0784 260.321 51.0935 254.958 60.2638 249.423C60.2638 249.423 51.0985 250.569 47.2571 258.375C43.4461 266.183 44.5463 272.424 37.6016 275.315L42.6579 275.38Z" fill="#65AB0E"/>
<defs>
<linearGradient id="paint0_linear_2666_6249" x1="71.2277" y1="155.228" x2="70.6795" y2="133" gradientUnits="userSpaceOnUse">
<stop stop-color="#65AB0E"/>
<stop offset="1" stop-color="#B3E042"/>
</linearGradient>
<linearGradient id="paint1_linear_2666_6249" x1="50.2868" y1="160.824" x2="49.7392" y2="138.621" gradientUnits="userSpaceOnUse">
<stop stop-color="#65AB0E"/>
<stop offset="1" stop-color="#B3E042"/>
</linearGradient>
<linearGradient id="paint2_linear_2666_6249" x1="31.5301" y1="166.44" x2="30.9934" y2="144.679" gradientUnits="userSpaceOnUse">
<stop stop-color="#65AB0E"/>
<stop offset="1" stop-color="#B3E042"/>
</linearGradient>
<linearGradient id="paint3_linear_2666_6249" x1="6.07919" y1="28.9748" x2="24.9938" y2="14.8327" gradientUnits="userSpaceOnUse">
<stop stop-color="#65AB0E"/>
<stop offset="1" stop-color="#B3E042"/>
</linearGradient>
<linearGradient id="paint4_linear_2666_6249" x1="17.8294" y1="36.7959" x2="42.6786" y2="18.2166" gradientUnits="userSpaceOnUse">
<stop stop-color="#65AB0E"/>
<stop offset="1" stop-color="#B3E042"/>
</linearGradient>
<clipPath id="clip0_2666_6249">
<rect width="32.4307" height="63.2424" fill="white" transform="translate(21.1318 166.688) rotate(-91.4127)"/>
</clipPath>
<clipPath id="clip1_2666_6249">
<rect width="35.7737" height="33.5227" fill="white" transform="translate(0.620117 21.6533) rotate(-36.7849)"/>
</clipPath>
</defs>
</svg>
