<svg width="94" height="251" viewBox="0 0 94 251" fill="none" xmlns="http://www.w3.org/2000/svg">
<path d="M59.3451 10.8154C61.4096 7.85519 62.8962 6.75173 66.2661 5.58488C65.0864 3.99522 64.4869 3.18098 63.3072 1.59132C59.9373 2.75818 58.4411 3.89096 56.3862 6.82189C57.5659 8.41155 58.1751 9.19647 59.3451 10.8154Z" fill="#D6F898"/>
<path d="M15.4472 30.074C11.6921 35.8073 8.89062 38.0282 2.17798 40.4569C4.83816 43.446 6.15317 44.9356 8.82258 47.8966C15.5352 45.4679 18.3367 43.247 22.0918 37.5137C19.4317 34.5246 18.0773 33.0532 15.4472 30.074Z" fill="#D6F898"/>
<path d="M44.6229 243.022C39.0268 241.25 36.5528 239.478 33.0544 234.759C31.1545 237.407 30.2244 238.721 28.3244 241.37C31.8228 246.089 34.2968 247.861 39.8929 249.634C41.7928 246.985 42.7229 245.671 44.6229 243.022Z" fill="#D6F898"/>
<path d="M76.6615 56.4531C82.1654 53.485 85.3056 52.9247 91.354 53.8506C90.8999 50.3512 90.6538 48.6118 90.1713 45.1031C84.123 44.1772 81.0111 44.7469 75.4789 47.7056C75.9613 51.2143 76.2075 52.9537 76.6615 56.4531Z" fill="#D6F898"/>
</svg>
