<svg width="178" height="226" viewBox="0 0 178 226" fill="none" xmlns="http://www.w3.org/2000/svg">
<path d="M88.969 219.85C83.4816 215.744 80.0901 214.613 72.9516 214.623C74.431 210.905 75.1582 209.056 76.6559 205.361C83.7944 205.352 87.1859 206.482 92.6733 210.588C91.1939 214.306 90.4234 216.152 88.969 219.85Z" fill="#99C941"/>
<path d="M166.937 172.666C169.888 174.743 171.662 175.273 175.228 175.218C174.662 177.115 174.377 178.085 173.811 179.982C170.245 180.036 168.452 179.483 165.52 177.43C166.086 175.533 166.39 174.587 166.937 172.666Z" fill="#99C941"/>
<path d="M24.1993 103.403C25.9326 109.305 27.7871 111.823 32.8195 115.324C29.8724 117.487 28.3732 118.588 25.4261 120.751C20.3938 117.25 18.5392 114.732 16.806 108.83C19.7787 106.647 21.2522 105.566 24.1993 103.403Z" fill="#99C941"/>
<path d="M17.5854 6.8776C12.9311 10.4548 11.2109 12.9648 9.53473 18.5955C6.84452 16.7551 5.52152 15.8376 2.83131 13.9972C4.50749 8.36656 6.22771 5.85661 10.882 2.27939C13.5722 4.11972 14.8952 5.03728 17.5854 6.8776Z" fill="#99C941"/>
<path d="M109.273 62.3356C115.459 63.2455 118.602 62.6998 123.971 59.7639C124.739 63.208 125.102 64.9268 125.846 68.3893C120.478 71.3252 117.359 71.8525 111.149 70.961C110.404 67.4985 110.041 65.7796 109.273 62.3356Z" fill="#99C941"/>
<path d="M72.8502 144.761C72.8062 149.421 73.5379 151.743 76.189 155.613C73.7455 156.326 72.5163 156.648 70.0486 157.381C67.3539 153.504 66.6659 151.189 66.6858 146.547C69.1775 145.796 70.3872 145.449 72.8502 144.761Z" fill="#99C941"/>
<path d="M61.6861 84.8016C66.2805 87.1784 68.9024 87.6062 74.1028 86.8244C73.5629 89.6588 73.2806 91.0858 72.716 93.9397C67.5157 94.7215 64.8938 94.2936 60.2994 91.9169C60.864 89.063 61.1463 87.6361 61.6861 84.8016Z" fill="#99C941"/>
</svg>
