<svg width="170" height="216" viewBox="0 0 170 216" fill="none" xmlns="http://www.w3.org/2000/svg">
<g clip-path="url(#clip0_2666_6253)">
<path d="M87.4106 47.5686C95.4442 48.074 85.9071 26.8876 89.8135 19.7163C88.1936 19.2783 86.5011 19.1997 84.7862 19.6759C77.301 21.7156 83.7418 38.631 82.9784 46.1158C84.3167 46.9494 85.7831 47.4737 87.4106 47.5686Z" fill="#65AB0E"/>
<path d="M55.455 27.6348C55.455 27.6348 58.2883 26.8687 60.1582 28.2573C66.2568 32.4399 69.6196 49.0254 79.7308 49.6573C80.102 49.6926 80.4426 49.6502 80.7292 49.584L88.6697 47.4306C88.6697 47.4306 84.6283 47.3307 82.9915 46.1024C82.9359 46.0523 82.8819 46.0285 82.8278 46.0047C74.5164 40.6737 71.6261 23.565 63.8897 25.3527L55.455 27.6348Z" fill="url(#paint0_linear_2666_6253)"/>
<path d="M84.3569 19.789C84.3569 19.789 87.7872 19.0871 89.8133 19.7169C89.8535 19.7282 89.8937 19.7395 89.92 19.7383C97.7704 21.9531 104.086 32.7306 104.086 32.7306L111.792 30.641C111.792 30.641 102.697 15.103 92.7777 17.4944L84.3569 19.789Z" fill="url(#paint1_linear_2666_6253)"/>
</g>
<g clip-path="url(#clip1_2666_6253)">
<path d="M14.9303 184.707C14.9303 184.707 21.8972 186.826 20.9562 196.548C20.039 206.25 24.1338 207.737 24.1338 207.737L29.1877 208.035C29.1877 208.035 30.8759 210.307 32.2538 203.385C33.6316 196.463 28.6461 179.134 21.5229 181.024C12.0315 183.552 14.9303 184.707 14.9303 184.707Z" fill="#65AB0E"/>
<path d="M23.9785 181.132C23.9785 181.132 19.4093 179.439 13.1603 179.935C10.0999 180.191 3.49653 186.99 5.67608 195.554C5.67608 195.554 5.47169 196.959 8.86306 198.539C12.2972 200.123 15.0109 201.192 15.7122 200.363C15.7122 200.363 14.361 198.173 14.748 194.797C14.9929 192.66 15.563 191.274 17.1047 187.835C19.5611 182.271 22.5028 180.595 23.9785 181.132Z" fill="url(#paint2_linear_2666_6253)"/>
<path d="M30.1986 208.28C30.1986 208.28 28.9292 209.91 22.272 207.545C19.2163 206.437 17.1315 203.47 17.4183 200.212C17.5267 199.077 17.7402 197.781 18.1352 196.224C20.2205 188.041 25.443 182.144 29.5993 182.339C38.0639 182.724 41.4931 184.351 42.9051 185.444C42.9051 185.444 37.3948 182.518 32.0155 189.782C25.9105 198.089 26.2504 208.347 30.1986 208.28Z" fill="url(#paint3_linear_2666_6253)"/>
</g>
<path d="M137.837 166.271C137.837 166.271 141.602 163.409 148.869 164.883C156.15 166.331 159.416 171.025 169.2 166.665C169.2 166.665 163.019 173.53 154.419 172.219C145.834 170.882 141.343 166.412 135 170.457L137.837 166.271Z" fill="#65AB0E"/>
<defs>
<linearGradient id="paint0_linear_2666_6253" x1="57.8992" y1="24.9282" x2="86.0399" y2="50.341" gradientUnits="userSpaceOnUse">
<stop stop-color="#B3E042"/>
<stop offset="1" stop-color="#65AB0E"/>
</linearGradient>
<linearGradient id="paint1_linear_2666_6253" x1="88.3982" y1="15.3139" x2="108.907" y2="33.8347" gradientUnits="userSpaceOnUse">
<stop stop-color="#B3E042"/>
<stop offset="1" stop-color="#65AB0E"/>
</linearGradient>
<linearGradient id="paint2_linear_2666_6253" x1="5.98131" y1="196.446" x2="24.4739" y2="181.757" gradientUnits="userSpaceOnUse">
<stop stop-color="#65AB0E"/>
<stop offset="1" stop-color="#B3E042"/>
</linearGradient>
<linearGradient id="paint3_linear_2666_6253" x1="17.9555" y1="203.92" x2="42.2502" y2="184.621" gradientUnits="userSpaceOnUse">
<stop stop-color="#65AB0E"/>
<stop offset="1" stop-color="#B3E042"/>
</linearGradient>
<clipPath id="clip0_2666_6253">
<rect width="43.8453" height="39.4053" fill="white" transform="translate(80.4102) rotate(42.084)"/>
</clipPath>
<clipPath id="clip1_2666_6253">
<rect width="35.7737" height="33.5227" fill="white" transform="translate(0.310547 189.288) rotate(-38.4619)"/>
</clipPath>
</defs>
</svg>
