<svg width="94" height="165" viewBox="0 0 94 165" fill="none" xmlns="http://www.w3.org/2000/svg">
<path d="M28.9424 150.391C19.2376 147.635 14.4178 145.203 6.36728 138.893C4.846 142.095 4.08536 143.696 2.58697 146.879C10.6375 153.189 15.4573 155.622 25.185 158.358C26.6834 155.175 27.444 153.574 28.9424 150.391Z" fill="#99C941"/>
<path d="M12.5442 26.3982C12.1577 20.2593 13.0406 17.2587 16.5749 12.25C13.0663 11.2237 11.2811 10.7004 7.77258 9.67418C4.2383 14.6829 3.35539 17.6835 3.74189 23.8223C7.2814 24.8588 9.03565 25.3719 12.5442 26.3982Z" fill="#99C941"/>
<path d="M88.2507 13.1884C86.6177 8.82303 86.5126 6.39134 87.6825 1.84824C85.1423 2.01242 83.8769 2.12935 81.3077 2.28396C80.0988 6.84753 80.2429 9.25874 81.8468 13.6145C84.4452 13.4695 85.7007 13.3826 88.2507 13.1884Z" fill="#99C941"/>
<path d="M66.6137 49.9876C59.9953 50.0244 56.7679 48.9639 51.4245 45.028C50.2515 48.5981 49.6603 50.3972 48.4873 53.9673C53.794 57.9223 57.0307 58.9547 63.6765 58.9269C64.8769 55.3658 65.468 53.5667 66.6137 49.9876Z" fill="#99C941"/>
<path d="M81.2123 126.013C84.7188 122.211 87.037 120.913 92.1916 119.872C90.7163 117.392 89.9636 116.147 88.4583 113.658C83.3036 114.699 80.9855 115.997 77.479 119.8C78.9843 122.289 79.737 123.534 81.2123 126.013Z" fill="#65AB0E"/>
<path d="M40.5598 116.277C38.025 114.947 36.9733 113.948 35.6932 111.598C34.5712 112.536 34.0354 112.982 32.9134 113.92C34.2255 116.28 35.2452 117.269 37.78 118.599C38.902 117.661 39.447 117.187 40.5598 116.277Z" fill="#B3E042"/>
</svg>
